<?xml version="1.0" standalone="no"?>
<!DOCTYPE svg PUBLIC "-//W3C//DTD SVG 20010904//EN"
 "http://www.w3.org/TR/2001/REC-SVG-20010904/DTD/svg10.dtd">
<svg version="1.0" xmlns="http://www.w3.org/2000/svg"
 width="320.000000pt" height="320.000000pt" viewBox="0 0 320.000000 320.000000"
 preserveAspectRatio="xMidYMid meet">
<metadata>
Created by potrace 1.11, written by Peter Selinger 2001-2013
</metadata>
<g transform="translate(0.000000,320.000000) scale(0.100000,-0.100000)"
fill="#000000" stroke="none">
<path d="M463 2219 c-46 -17 -47 -45 -3 -144 12 -27 30 -68 40 -90 103 -230
134 -308 133 -325 0 -2 -63 -36 -139 -75 -114 -57 -141 -75 -149 -98 -13 -39
0 -57 67 -90 100 -48 124 -47 291 17 l146 57 92 -46 c50 -26 89 -48 86 -51 -2
-3 -188 -96 -413 -208 -225 -112 -415 -210 -422 -219 -23 -27 -19 -100 7 -126
20 -20 152 -64 254 -85 51 -11 72 -11 122 1 33 8 73 20 89 28 16 8 33 15 37
15 8 0 109 44 174 75 158 77 507 227 535 230 126 13 250 16 269 5 21 -10 20
-12 -18 -63 -36 -47 -43 -52 -76 -51 -109 5 -171 -58 -134 -138 47 -104 88
-143 152 -142 53 0 147 37 169 67 22 27 23 79 3 117 -15 29 -14 31 28 88 l43
59 83 -29 c220 -78 432 -89 538 -30 31 17 41 15 46 -11 3 -17 5 -16 6 8 1 23
3 27 11 15 8 -13 10 -12 10 3 0 9 5 17 11 17 6 0 17 7 26 15 8 8 20 12 26 8 7
-3 9 -3 5 2 -4 4 -3 16 3 26 10 19 51 21 79 4 6 -4 4 5 -6 20 -16 25 -17 28
-1 37 9 5 17 14 17 19 0 6 -5 7 -11 3 -8 -4 -8 -1 -2 12 6 11 9 45 8 76 -2 48
0 56 13 50 14 -5 15 -4 2 10 -8 9 -19 13 -25 10 -5 -3 -7 -2 -3 3 4 4 0 14
-10 21 -19 14 -24 64 -8 77 7 6 4 7 -6 3 -10 -3 -20 0 -24 5 -3 6 -14 9 -24 6
-15 -4 -18 0 -15 22 2 14 2 20 -1 14 -8 -18 -31 -16 -42 3 -8 15 -10 15 -16
-1 -5 -14 -9 -15 -21 -5 -8 7 -15 9 -15 4 0 -5 -5 -2 -11 6 -9 13 -10 13 -6 0
2 -8 10 -14 16 -12 7 1 10 -2 6 -8 -6 -10 8 -13 57 -13 20 1 25 -3 21 -15 -5
-11 -2 -14 10 -9 9 3 19 2 22 -4 4 -5 11 -6 17 -3 7 5 8 2 3 -6 -6 -9 -4 -11
5 -5 9 5 11 4 6 -3 -5 -9 -13 -9 -26 -2 -15 8 -19 6 -22 -13 -3 -21 -5 -21
-35 11 -17 17 -35 32 -40 32 -4 0 -21 11 -36 25 -15 14 -27 23 -27 19 0 -3 -6
-1 -14 5 -11 9 -3 31 48 125 57 105 65 116 121 152 213 135 437 288 454 310
19 24 20 40 6 100 -3 12 -19 29 -37 37 -32 15 -155 43 -227 53 -59 7 -43 15
-626 -278 l-290 -146 -205 -6 c-113 -3 -231 -9 -263 -12 l-57 -7 6 31 c7 37
-7 55 -62 78 -66 28 -123 21 -234 -30 -114 -53 -119 -52 -166 16 -16 23 -35
49 -41 58 -7 8 -52 71 -101 140 -53 76 -99 130 -116 139 -32 15 -160 22 -193
10z m2091 -787 c3 -5 -1 -9 -9 -9 -8 0 -12 4 -9 9 3 4 7 8 9 8 2 0 6 -4 9 -8z"/>
<path d="M2669 1368 c-6 -22 -5 -39 3 -45 6 -3 8 -1 4 5 -3 6 2 13 11 15 17 4
17 5 0 6 -10 0 -15 6 -12 11 3 6 4 10 1 10 -3 0 -6 -1 -7 -2z"/>
<path d="M2695 1320 c3 -5 8 -10 11 -10 2 0 4 5 4 10 0 6 -5 10 -11 10 -5 0
-7 -4 -4 -10z"/>
<path d="M2707 1249 c7 -7 15 -10 18 -7 3 3 -2 9 -12 12 -14 6 -15 5 -6 -5z"/>
<path d="M2700 1218 c0 -4 5 -8 12 -8 9 0 9 -3 0 -12 -7 -7 -12 -17 -12 -22 1
-12 23 23 26 40 1 6 -5 11 -12 11 -8 0 -14 -4 -14 -9z"/>
<path d="M2708 1153 c7 -3 16 -2 19 1 4 3 -2 6 -13 5 -11 0 -14 -3 -6 -6z"/>
<path d="M2685 1101 c-3 -5 0 -13 6 -17 8 -5 9 -3 4 6 -6 10 -4 12 9 7 10 -4
15 -3 11 3 -8 13 -22 13 -30 1z"/>
<path d="M2634 1053 c3 -3 0 -15 -6 -27 -7 -11 -11 -24 -10 -28 2 -8 -13 -12
-30 -9 -5 0 -7 -2 -7 -6 3 -20 -2 -34 -10 -28 -5 3 -12 1 -16 -5 -4 -6 -11 -7
-17 -4 -7 5 -9 1 -5 -9 3 -9 0 -18 -9 -21 -8 -3 -14 -1 -14 4 0 5 -12 7 -27 5
-16 -2 -28 -4 -28 -5 0 -1 -10 -3 -23 -6 -14 -2 -21 0 -17 6 3 5 -1 10 -9 10
-9 0 -16 -4 -16 -10 0 -12 45 -24 59 -16 5 3 16 0 24 -9 13 -13 16 -13 21 1 5
14 9 14 23 3 12 -10 14 -10 9 -1 -7 12 2 15 34 13 11 0 11 1 2 5 -10 5 -9 9 5
19 10 7 22 11 26 8 5 -3 3 -10 -4 -15 -11 -8 -11 -9 1 -5 8 2 16 9 16 15 1 7
2 19 3 28 1 9 6 12 14 8 6 -4 9 -4 6 0 -4 4 4 19 17 33 27 29 27 45 0 49 -10
1 -15 0 -12 -3z m7 -36 l-24 -22 19 27 c10 14 21 24 23 22 3 -3 -6 -15 -18
-27z"/>
<path d="M2550 980 c0 -5 5 -10 10 -10 6 0 10 5 10 10 0 6 -4 10 -10 10 -5 0
-10 -4 -10 -10z"/>
<path d="M2481 954 c0 -11 3 -14 6 -6 3 7 2 16 -1 19 -3 4 -6 -2 -5 -13z"/>
<path d="M2350 906 c0 -2 9 -6 20 -9 11 -3 18 -1 14 4 -5 9 -34 13 -34 5z"/>
<path d="M2410 886 c0 -2 7 -7 16 -10 8 -3 12 -2 9 4 -6 10 -25 14 -25 6z"/>
<path d="M2455 880 c3 -5 8 -10 11 -10 2 0 4 5 4 10 0 6 -5 10 -11 10 -5 0 -7
-4 -4 -10z"/>
</g>
</svg>
